<?xml version="1.0" ?><!DOCTYPE svg  PUBLIC '-//W3C//DTD SVG 1.1//EN'  'http://www.w3.org/Graphics/SVG/1.1/DTD/svg11.dtd'><svg enable-background="new 0 0 128 128" id="Слой_1" version="1.1" viewBox="0 0 128 128" xml:space="preserve" xmlns="http://www.w3.org/2000/svg" xmlns:xlink="http://www.w3.org/1999/xlink"><g><path d="M53.3,63c-9,0-16.3,7.3-16.3,16.3c0,3.8,1.3,7.5,3.8,10.4l-0.4,0.2L64,108.5l20.6-16.3l2.3-1.8l-0.2-0.1   c2.8-3,4.3-6.9,4.3-11c0-9-7.3-16.3-16.3-16.3c-4,0-7.8,1.5-10.7,4C61,64.5,57.2,63,53.3,63z M74.7,67C81.5,67,87,72.5,87,79.3   c0,3.9-1.8,7.4-4.9,9.8l-2.4,1.8l0,0L64,103.4L45.7,88.9l-0.2-0.1C42.7,86.5,41,83,41,79.3C41,72.5,46.5,67,53.3,67   c3.5,0,6.9,1.5,9.2,4.2l1.5,1.7l1.5-1.7C67.8,68.5,71.2,67,74.7,67z" fill="#3EBBC4"/><path d="M111,12H92v17.2l-28-28L1.2,64L9,71.8l8-8V126h94V63.8l8,8l7.8-7.8L111,48.2V12z M107,60v62H21V60h-0.2   L64,16.8L107.2,60H107z M121.2,64l-2.2,2.2l-55-55l-55,55L6.8,64L64,6.8l32,32V16h11v33.8L121.2,64z" fill="#3EBBC4"/></g></svg>